<svg width="434" height="573" viewBox="0 0 434 573" fill="none" xmlns="http://www.w3.org/2000/svg">
<path d="M116.103 293.392V621.326H0.74778L116.103 293.392Z" fill="#0A321D"/>
<path d="M231.193 621.326H115.838V293.392L231.193 621.326Z" fill="#49975D"/>
<path fill-rule="evenodd" clip-rule="evenodd" d="M119.754 465.175C119.685 465.706 119.649 466.247 119.649 466.796C119.649 468.602 120.036 470.318 120.731 471.864C122.667 476.166 126.99 479.161 132.014 479.161C137.037 479.161 141.36 476.166 143.296 471.864H152.353C154.288 476.166 158.612 479.161 163.635 479.161C170.464 479.161 176 473.625 176 466.796C176 466.247 175.964 465.706 175.895 465.175H169.684C169.837 465.723 169.919 466.301 169.919 466.898C169.919 470.424 167.06 473.283 163.534 473.283C160.007 473.283 157.149 470.424 157.149 466.898C157.149 466.301 157.231 465.723 157.384 465.175H138.062C138.215 465.723 138.297 466.301 138.297 466.898C138.297 470.424 135.439 473.283 131.912 473.283C128.386 473.283 125.527 470.424 125.527 466.898C125.527 466.301 125.609 465.723 125.762 465.175H119.754Z" fill="#FFF4C6"/>
<path fill-rule="evenodd" clip-rule="evenodd" d="M56.1054 465.175C56.0359 465.706 56 466.247 56 466.796C56 473.625 61.5359 479.161 68.3649 479.161C73.388 479.161 77.7116 476.166 79.6469 471.864H88.7044C90.6397 476.166 94.9633 479.161 99.9865 479.161C106.815 479.161 112.351 473.625 112.351 466.796C112.351 466.247 112.315 465.706 112.246 465.175H106.035C106.188 465.723 106.27 466.301 106.27 466.898C106.27 470.424 103.412 473.283 99.8851 473.283C96.3587 473.283 93.5 470.424 93.5 466.898C93.5 466.301 93.5819 465.723 93.7352 465.175H74.4135C74.5667 465.723 74.6486 466.301 74.6486 466.898C74.6486 470.424 71.7899 473.283 68.2635 473.283C64.7371 473.283 61.8784 470.424 61.8784 466.898C61.8784 466.301 61.9603 465.723 62.1135 465.175H56.1054Z" fill="#FFF4C6"/>
<path fill-rule="evenodd" clip-rule="evenodd" d="M121.473 465.175H111.135V471.864H120.731H121.473V465.175Z" fill="#FFF4C6"/>
<path d="M34.5 525.5L30 539H195.5L191.5 525.5H34.5Z" fill="#FFF4C6"/>
<rect x="107" y="465.17" width="18" height="6.69568" fill="#FFF4C6"/>
<path d="M355.706 4.51547V623.666H573.5L355.706 4.51547Z" fill="#0A321D"/>
<path d="M138.412 623.666H356.206V4.51547L138.412 623.666Z" fill="#49975D"/>
<path d="M221.716 518.034C230.39 521.523 267.394 554.731 267.394 554.731C267.394 554.731 217.702 553.067 209.028 549.578C200.355 546.089 196.164 536.2 199.668 527.489C203.171 518.779 213.043 514.545 221.716 518.034Z" fill="#0A321D"/>
<path d="M229.323 481.103C235.676 485.954 258.608 521.752 258.608 521.752C258.608 521.752 218.034 509.06 211.68 504.209C205.327 499.358 204.126 490.253 208.998 483.872C213.87 477.491 222.97 476.251 229.323 481.103Z" fill="#0A321D"/>
<path d="M229.708 450.39C233.815 454.375 247.093 481.761 247.093 481.761C247.093 481.761 219.32 469.311 215.213 465.326C211.107 461.34 211.022 454.766 215.024 450.641C219.027 446.517 225.601 446.404 229.708 450.39Z" fill="#0A321D"/>
<path d="M295.596 503.424C288.858 509.905 266.964 554.545 266.964 554.545C266.964 554.545 312.425 534.411 319.164 527.931C325.902 521.451 326.089 510.711 319.581 503.944C313.073 497.177 302.335 496.944 295.596 503.424Z" fill="#0A321D"/>
<path d="M319.611 539.14C310.326 547.04 276.395 596.051 276.395 596.051C276.395 596.051 330.268 571.582 339.552 563.682C348.837 555.783 356.827 543.691 348.893 534.367C340.96 525.043 328.895 531.24 319.611 539.14Z" fill="#0A321D"/>
<path d="M215.855 562.554C227.636 565.685 279.367 595.305 279.367 595.305C279.367 595.305 220.209 596.423 208.427 593.292C196.646 590.161 184.227 582.69 187.371 570.858C190.516 559.026 204.073 559.423 215.855 562.554Z" fill="#0A321D"/>
<path d="M267.24 472.665C263.568 479.765 258.124 521.929 258.124 521.929C258.124 521.929 289.39 493.122 293.063 486.022C296.735 478.922 293.932 470.176 286.801 466.488C279.671 462.799 270.913 465.565 267.24 472.665Z" fill="#0A321D"/>
<path d="M248.077 445.348C246.396 450.819 247.943 481.215 247.943 481.215C247.943 481.215 266.291 456.931 267.972 451.461C269.653 445.991 266.562 440.188 261.068 438.5C255.574 436.812 249.758 439.878 248.077 445.348Z" fill="#0A321D"/>
<path fill-rule="evenodd" clip-rule="evenodd" d="M247.083 479.23C247.483 479.123 247.894 479.36 248.001 479.761L284.236 614.99C284.343 615.39 284.106 615.802 283.706 615.909C283.306 616.016 282.894 615.779 282.787 615.378L246.553 480.149C246.445 479.749 246.683 479.337 247.083 479.23Z" fill="#0A321D"/>
<path d="M259.98 379.445C265.472 381.654 288.905 402.682 288.905 402.682C288.905 402.682 257.438 401.628 251.946 399.419C246.453 397.21 243.8 390.948 246.018 385.432C248.237 379.916 254.488 377.236 259.98 379.445Z" fill="#0A321D"/>
<path d="M264.797 356.059C268.82 359.131 283.341 381.799 283.341 381.799C283.341 381.799 257.648 373.762 253.625 370.69C249.602 367.618 248.841 361.853 251.926 357.812C255.011 353.772 260.774 352.987 264.797 356.059Z" fill="#0A321D"/>
<path d="M265.041 336.61C267.641 339.134 276.05 356.476 276.05 356.476C276.05 356.476 258.463 348.592 255.862 346.068C253.262 343.545 253.208 339.382 255.743 336.77C258.277 334.158 262.44 334.087 265.041 336.61Z" fill="#0A321D"/>
<path d="M306.763 370.193C302.496 374.297 288.632 402.564 288.632 402.564C288.632 402.564 317.42 389.815 321.687 385.712C325.954 381.608 326.072 374.808 321.951 370.522C317.83 366.237 311.03 366.09 306.763 370.193Z" fill="#0A321D"/>
<path d="M321.97 392.81C316.09 397.812 294.605 428.847 294.605 428.847C294.605 428.847 328.718 413.353 334.597 408.351C340.476 403.348 345.536 395.691 340.512 389.787C335.488 383.883 327.849 387.807 321.97 392.81Z" fill="#0A321D"/>
<path d="M256.269 407.636C263.729 409.619 296.486 428.375 296.486 428.375C296.486 428.375 259.026 429.083 251.565 427.1C244.105 425.118 236.241 420.387 238.232 412.894C240.223 405.402 248.808 405.654 256.269 407.636Z" fill="#0A321D"/>
<path d="M288.807 350.716C286.482 355.212 283.035 381.911 283.035 381.911C283.035 381.911 302.833 363.67 305.159 359.174C307.484 354.678 305.709 349.14 301.194 346.804C296.679 344.468 291.133 346.22 288.807 350.716Z" fill="#0A321D"/>
<path d="M276.673 333.418C275.608 336.882 276.588 356.13 276.588 356.13C276.588 356.13 288.206 340.753 289.271 337.289C290.335 333.825 288.378 330.15 284.899 329.081C281.42 328.012 277.737 329.954 276.673 333.418Z" fill="#0A321D"/>
<path fill-rule="evenodd" clip-rule="evenodd" d="M276.043 354.873C276.296 354.805 276.557 354.955 276.625 355.209L299.57 440.84C299.637 441.093 299.487 441.354 299.234 441.422C298.98 441.49 298.72 441.339 298.652 441.086L275.707 355.455C275.639 355.201 275.79 354.941 276.043 354.873Z" fill="#0A321D"/>
<path d="M289.497 286.228C293.182 287.711 308.905 301.82 308.905 301.82C308.905 301.82 287.791 301.113 284.106 299.631C280.421 298.148 278.64 293.947 280.129 290.246C281.617 286.545 285.812 284.746 289.497 286.228Z" fill="#0A321D"/>
<path d="M292.729 270.537C295.428 272.598 305.172 287.808 305.172 287.808C305.172 287.808 287.932 282.415 285.233 280.354C282.533 278.293 282.023 274.424 284.093 271.713C286.163 269.002 290.029 268.475 292.729 270.537Z" fill="#0A321D"/>
<path d="M292.892 257.487C294.637 259.18 300.279 270.817 300.279 270.817C300.279 270.817 288.479 265.527 286.734 263.833C284.989 262.14 284.953 259.347 286.654 257.594C288.354 255.842 291.147 255.794 292.892 257.487Z" fill="#0A321D"/>
<path d="M320.887 280.021C318.024 282.774 308.722 301.741 308.722 301.741C308.722 301.741 328.038 293.187 330.901 290.433C333.764 287.68 333.843 283.117 331.078 280.242C328.313 277.366 323.75 277.267 320.887 280.021Z" fill="#0A321D"/>
<path d="M331.091 295.196C327.146 298.552 312.729 319.376 312.729 319.376C312.729 319.376 335.619 308.98 339.564 305.623C343.508 302.267 346.903 297.129 343.532 293.168C340.161 289.206 335.035 291.839 331.091 295.196Z" fill="#0A321D"/>
<path d="M287.006 305.144C292.012 306.474 313.992 319.059 313.992 319.059C313.992 319.059 288.856 319.534 283.851 318.204C278.845 316.874 273.568 313.699 274.904 308.672C276.24 303.645 282.001 303.814 287.006 305.144Z" fill="#0A321D"/>
<path d="M308.839 266.952C307.279 269.968 304.966 287.883 304.966 287.883C304.966 287.883 318.25 275.643 319.811 272.627C321.371 269.61 320.18 265.894 317.15 264.327C314.121 262.76 310.4 263.935 308.839 266.952Z" fill="#0A321D"/>
<path d="M300.697 255.345C299.983 257.669 300.64 270.584 300.64 270.584C300.64 270.584 308.436 260.267 309.15 257.942C309.864 255.618 308.551 253.152 306.217 252.435C303.883 251.718 301.411 253.021 300.697 255.345Z" fill="#0A321D"/>
<path fill-rule="evenodd" clip-rule="evenodd" d="M300.275 269.741C300.445 269.695 300.62 269.796 300.665 269.966L316.061 327.423C316.106 327.593 316.005 327.768 315.835 327.814C315.665 327.859 315.491 327.758 315.445 327.588L300.049 270.131C300.004 269.961 300.105 269.787 300.275 269.741Z" fill="#0A321D"/>
<path d="M307.353 214.016C310.214 215.167 322.424 226.124 322.424 226.124C322.424 226.124 306.028 225.574 303.166 224.423C300.305 223.272 298.922 220.009 300.078 217.135C301.234 214.261 304.491 212.865 307.353 214.016Z" fill="#0A321D"/>
<path d="M309.862 201.83C311.959 203.431 319.525 215.242 319.525 215.242C319.525 215.242 306.138 211.055 304.041 209.454C301.945 207.854 301.549 204.849 303.156 202.744C304.764 200.639 307.766 200.23 309.862 201.83Z" fill="#0A321D"/>
<path d="M309.989 191.697C311.344 193.012 315.726 202.048 315.726 202.048C315.726 202.048 306.562 197.94 305.207 196.625C303.852 195.31 303.824 193.141 305.145 191.78C306.465 190.419 308.634 190.382 309.989 191.697Z" fill="#0A321D"/>
<path d="M331.729 209.195C329.506 211.333 322.282 226.062 322.282 226.062C322.282 226.062 337.281 219.419 339.505 217.281C341.728 215.143 341.79 211.6 339.642 209.367C337.495 207.134 333.952 207.057 331.729 209.195Z" fill="#0A321D"/>
<path d="M339.652 220.979C336.589 223.586 325.394 239.757 325.394 239.757C325.394 239.757 343.168 231.683 346.232 229.077C349.295 226.471 351.931 222.481 349.314 219.405C346.696 216.328 342.715 218.373 339.652 220.979Z" fill="#0A321D"/>
<path d="M305.419 228.705C309.306 229.738 326.374 239.511 326.374 239.511C326.374 239.511 306.855 239.88 302.968 238.847C299.081 237.814 294.983 235.348 296.021 231.444C297.058 227.541 301.531 227.672 305.419 228.705Z" fill="#0A321D"/>
<path d="M322.373 199.047C321.161 201.389 319.365 215.301 319.365 215.301C319.365 215.301 329.681 205.796 330.893 203.453C332.105 201.111 331.18 198.225 328.827 197.008C326.474 195.791 323.585 196.704 322.373 199.047Z" fill="#0A321D"/>
<path d="M316.05 190.034C315.496 191.838 316.006 201.868 316.006 201.868C316.006 201.868 322.06 193.855 322.614 192.05C323.169 190.245 322.149 188.331 320.336 187.774C318.524 187.217 316.605 188.229 316.05 190.034Z" fill="#0A321D"/>
<path fill-rule="evenodd" clip-rule="evenodd" d="M315.722 201.213C315.854 201.177 315.99 201.256 316.025 201.388L327.981 246.006C328.016 246.138 327.938 246.273 327.806 246.309C327.674 246.344 327.538 246.266 327.503 246.134L315.547 201.516C315.512 201.384 315.59 201.248 315.722 201.213Z" fill="#0A321D"/>
<path d="M319.778 149.656C322.161 150.615 332.326 159.737 332.326 159.737C332.326 159.737 318.675 159.28 316.293 158.321C313.91 157.363 312.759 154.646 313.721 152.253C314.684 149.861 317.395 148.698 319.778 149.656Z" fill="#0A321D"/>
<path d="M321.868 139.511C323.613 140.843 329.913 150.677 329.913 150.677C329.913 150.677 318.766 147.191 317.021 145.858C315.276 144.526 314.946 142.024 316.284 140.271C317.623 138.519 320.122 138.178 321.868 139.511Z" fill="#0A321D"/>
<path d="M321.973 131.074C323.102 132.168 326.749 139.692 326.749 139.692C326.749 139.692 319.12 136.271 317.992 135.177C316.864 134.082 316.84 132.276 317.94 131.143C319.039 130.01 320.845 129.979 321.973 131.074Z" fill="#0A321D"/>
<path d="M340.074 145.643C338.222 147.423 332.208 159.686 332.208 159.686C332.208 159.686 344.697 154.155 346.548 152.375C348.399 150.595 348.45 147.644 346.662 145.785C344.875 143.926 341.925 143.862 340.074 145.643Z" fill="#0A321D"/>
<path d="M346.67 155.454C344.12 157.624 334.799 171.088 334.799 171.088C334.799 171.088 349.598 164.366 352.149 162.196C354.699 160.026 356.894 156.704 354.715 154.143C352.535 151.581 349.221 153.284 346.67 155.454Z" fill="#0A321D"/>
<path d="M318.168 161.886C321.404 162.746 335.615 170.883 335.615 170.883C335.615 170.883 319.364 171.19 316.127 170.33C312.891 169.47 309.48 167.418 310.343 164.167C311.207 160.917 314.931 161.026 318.168 161.886Z" fill="#0A321D"/>
<path d="M332.284 137.193C331.275 139.143 329.78 150.726 329.78 150.726C329.78 150.726 338.369 142.813 339.378 140.862C340.386 138.912 339.616 136.509 337.657 135.496C335.699 134.483 333.293 135.242 332.284 137.193Z" fill="#0A321D"/>
<path d="M327.02 129.689C326.558 131.191 326.983 139.542 326.983 139.542C326.983 139.542 332.023 132.871 332.485 131.368C332.947 129.865 332.098 128.271 330.588 127.807C329.079 127.344 327.481 128.186 327.02 129.689Z" fill="#0A321D"/>
<path fill-rule="evenodd" clip-rule="evenodd" d="M326.747 138.996C326.856 138.967 326.969 139.032 326.999 139.142L336.953 176.291C336.982 176.401 336.917 176.514 336.807 176.543C336.697 176.573 336.584 176.507 336.555 176.397L326.601 139.249C326.571 139.139 326.637 139.026 326.747 138.996Z" fill="#0A321D"/>
<path d="M332.281 104.415C333.659 104.969 339.538 110.245 339.538 110.245C339.538 110.245 331.643 109.981 330.265 109.426C328.887 108.872 328.222 107.301 328.778 105.917C329.335 104.533 330.903 103.861 332.281 104.415Z" fill="#0A321D"/>
<path d="M333.489 98.548C334.499 99.3187 338.142 105.006 338.142 105.006C338.142 105.006 331.696 102.989 330.687 102.219C329.677 101.448 329.487 100.002 330.26 98.988C331.034 97.9744 332.48 97.7774 333.489 98.548Z" fill="#0A321D"/>
<path d="M333.551 93.6689C334.203 94.302 336.312 98.6527 336.312 98.6527C336.312 98.6527 331.9 96.6748 331.248 96.0417C330.596 95.4086 330.582 94.3641 331.218 93.7089C331.854 93.0537 332.898 93.0358 333.551 93.6689Z" fill="#0A321D"/>
<path d="M344.018 102.094C342.947 103.124 339.469 110.215 339.469 110.215C339.469 110.215 346.691 107.017 347.762 105.987C348.832 104.958 348.862 103.252 347.828 102.177C346.794 101.102 345.088 101.065 344.018 102.094Z" fill="#0A321D"/>
<path d="M347.833 107.768C346.358 109.023 340.968 116.809 340.968 116.809C340.968 116.809 349.526 112.922 351.001 111.667C352.476 110.412 353.745 108.491 352.485 107.01C351.224 105.528 349.308 106.513 347.833 107.768Z" fill="#0A321D"/>
<path d="M331.35 111.488C333.222 111.985 341.44 116.691 341.44 116.691C341.44 116.691 332.042 116.868 330.17 116.371C328.298 115.873 326.325 114.686 326.825 112.807C327.324 110.927 329.478 110.99 331.35 111.488Z" fill="#0A321D"/>
<path d="M339.513 97.2077C338.93 98.3356 338.065 105.034 338.065 105.034C338.065 105.034 343.032 100.457 343.615 99.3295C344.199 98.2016 343.753 96.8122 342.621 96.2263C341.488 95.6403 340.097 96.0797 339.513 97.2077Z" fill="#0A321D"/>
<path d="M336.469 92.868C336.202 93.7371 336.448 98.5659 336.448 98.5659C336.448 98.5659 339.362 94.7082 339.629 93.8391C339.896 92.9701 339.405 92.0482 338.533 91.78C337.66 91.5119 336.736 91.999 336.469 92.868Z" fill="#0A321D"/>
<path fill-rule="evenodd" clip-rule="evenodd" d="M336.311 98.2506C336.374 98.2336 336.44 98.2713 336.457 98.3349L342.213 119.818C342.23 119.881 342.192 119.947 342.129 119.964C342.065 119.981 342 119.943 341.983 119.88L336.227 98.3965C336.21 98.333 336.247 98.2676 336.311 98.2506Z" fill="#0A321D"/>
<path d="M340.015 72.5179C340.955 72.896 344.966 76.4955 344.966 76.4955C344.966 76.4955 339.58 76.3152 338.64 75.937C337.699 75.5588 337.245 74.4869 337.625 73.5427C338.005 72.5985 339.075 72.1397 340.015 72.5179Z" fill="#0A321D"/>
<path d="M340.839 68.5147C341.528 69.0405 344.014 72.9209 344.014 72.9209C344.014 72.9209 339.616 71.5451 338.927 71.0193C338.238 70.4935 338.108 69.5065 338.636 68.8149C339.164 68.1233 340.151 67.9889 340.839 68.5147Z" fill="#0A321D"/>
<path d="M340.881 65.1856C341.326 65.6176 342.766 68.5861 342.766 68.5861C342.766 68.5861 339.755 67.2366 339.31 66.8046C338.865 66.3726 338.856 65.66 339.289 65.2129C339.723 64.7659 340.436 64.7536 340.881 65.1856Z" fill="#0A321D"/>
<path d="M348.023 70.9342C347.293 71.6367 344.919 76.4754 344.919 76.4754C344.919 76.4754 349.847 74.293 350.577 73.5906C351.308 72.8882 351.328 71.7241 350.623 70.9906C349.917 70.257 348.753 70.2318 348.023 70.9342Z" fill="#0A321D"/>
<path d="M350.626 74.8056C349.62 75.6619 345.942 80.9744 345.942 80.9744C345.942 80.9744 351.781 78.3221 352.787 77.4658C353.794 76.6096 354.66 75.2989 353.8 74.2882C352.94 73.2775 351.632 73.9493 350.626 74.8056Z" fill="#0A321D"/>
<path d="M339.379 77.3435C340.657 77.6829 346.264 80.8935 346.264 80.8935C346.264 80.8935 339.851 81.0147 338.574 80.6753C337.297 80.336 335.951 79.5261 336.292 78.2436C336.633 76.9611 338.102 77.0042 339.379 77.3435Z" fill="#0A321D"/>
<path d="M344.949 67.6002C344.551 68.3698 343.961 72.94 343.961 72.94C343.961 72.94 347.35 69.8175 347.748 69.0479C348.146 68.2783 347.843 67.3303 347.07 66.9305C346.297 66.5308 345.347 66.8306 344.949 67.6002Z" fill="#0A321D"/>
<path d="M342.872 64.6392C342.69 65.2321 342.858 68.5269 342.858 68.5269C342.858 68.5269 344.846 65.8947 345.029 65.3018C345.211 64.7088 344.876 64.0798 344.28 63.8968C343.685 63.7139 343.054 64.0462 342.872 64.6392Z" fill="#0A321D"/>
<path fill-rule="evenodd" clip-rule="evenodd" d="M342.764 68.3118C342.808 68.3001 342.852 68.3259 342.864 68.3692L346.792 83.0273C346.803 83.0706 346.777 83.1152 346.734 83.1268C346.691 83.1384 346.646 83.1127 346.635 83.0693L342.707 68.4113C342.695 68.368 342.721 68.3234 342.764 68.3118Z" fill="#0A321D"/>
</svg>
