<svg width="210" height="252" viewBox="0 0 210 252" fill="none" xmlns="http://www.w3.org/2000/svg">
<g filter="url(#filter0_d_128_2447)">
<rect x="12" y="136.515" width="98" height="98" rx="49" fill="#DA3632"/>
<rect x="13.8495" y="138.364" width="94.301" height="94.301" rx="47.1505" stroke="#FF2D4C" stroke-width="3.69902"/>
<g clip-path="url(#clip0_128_2447)">
<path d="M48.7177 164.017L54.8494 160.492L60.9798 156.966L67.1103 153.441L60.9685 149.914L54.838 153.439L48.7076 156.965L42.5772 160.49L36.4467 164.016L30.3163 167.54L36.4568 171.068L42.5986 174.595L48.7392 178.123L54.881 181.65L61.0215 185.178L67.1519 181.652L73.2824 178.127L79.4128 174.601L85.5433 171.076L91.6737 167.55L85.5332 164.023L79.4027 167.549L73.2723 171.073L67.1418 174.599L61.0114 178.124L54.8696 174.597L61 171.072L67.1305 167.546L73.2609 164.021L79.3914 160.495L73.2508 156.969L67.1204 160.494L60.9899 164.02L54.8595 167.545L48.7291 171.069L42.5873 167.543L48.7177 164.017Z" fill="white"/>
<path d="M58.7574 221.081V215.399V206.055V200.373V194.691V189.009L53.0753 185.728V191.41V197.092V202.775V212.119L47.3931 208.838V199.494V193.812V188.13V182.448L41.7109 179.166V184.848V190.53V196.212V205.556L36.0287 202.276V192.932V187.25V181.567V175.885L30.3466 172.605V178.287V183.969V189.651V195.333V204.677" fill="white"/>
<path d="M63.3323 215.445V221.115L69.0031 217.841L86.0143 208.02L91.6851 204.746V172.614L86.0143 175.888L69.0031 185.709L63.3323 188.983V194.654M86.013 202.35L69.0018 212.172V204.612L86.013 194.791V202.35ZM86.013 189.12L69.0018 198.941V191.381L86.013 181.56V189.12Z" fill="white"/>
</g>
</g>
<path fill-rule="evenodd" clip-rule="evenodd" d="M61 -4C62.1939 -4 63.1617 -3.03215 63.1617 -1.83824L63.1617 129.309C63.1617 130.503 62.1939 131.471 61 131.471C59.8061 131.471 58.8382 130.503 58.8382 129.309L58.8382 -1.83824C58.8382 -3.03215 59.8061 -4 61 -4Z" fill="#FF2D4C"/>
<path d="M48.0294 129.309H73.9706V135.073C73.9706 136.665 72.6801 137.956 71.0882 137.956H50.9118C49.3199 137.956 48.0294 136.665 48.0294 135.073V129.309Z" fill="white"/>
<path fill-rule="evenodd" clip-rule="evenodd" d="M72.5294 130.75H49.4706V135.073C49.4706 135.869 50.1158 136.515 50.9118 136.515H71.0882C71.8842 136.515 72.5294 135.869 72.5294 135.073V130.75ZM48.0294 129.309V135.073C48.0294 136.665 49.3199 137.956 50.9118 137.956H71.0882C72.6801 137.956 73.9706 136.665 73.9706 135.073V129.309H48.0294Z" fill="#FF2D4C"/>
<g filter="url(#filter1_d_128_2447)">
<rect x="133" y="93.3848" width="65.1299" height="65.1299" rx="32.565" fill="#49975D"/>
<rect x="134.229" y="94.6139" width="62.6716" height="62.6716" rx="31.3358" stroke="#006F30" stroke-width="2.45833"/>
<g clip-path="url(#clip1_128_2447)">
<path d="M157.713 112.207L161.633 109.954L165.552 107.7L169.471 105.447L165.545 103.192L161.626 105.446L157.707 107.699L153.788 109.953L149.869 112.207L145.95 114.46L149.876 116.715L153.802 118.969L157.727 121.224L161.653 123.479L165.579 125.734L169.498 123.481L173.416 121.227L177.335 118.973L181.254 116.72L185.173 114.466L181.248 112.212L177.329 114.465L173.41 116.718L169.491 118.972L165.572 121.225L161.646 118.971L165.565 116.717L169.484 114.464L173.403 112.21L177.322 109.956L173.396 107.702L169.477 109.955L165.558 112.209L161.64 114.463L157.721 116.716L153.795 114.461L157.713 112.207Z" fill="white"/>
<path d="M164.131 148.686V145.053V139.08V135.448V131.815V128.183L160.499 126.086V129.718V133.351V136.983V142.956L156.867 140.859V134.886V131.254V127.621V123.989L153.234 121.891V125.524V129.156V132.788V138.761L149.602 136.664V130.691V127.059V123.426V119.794L145.97 117.697V121.329V124.962V128.594V132.226V138.199" fill="white"/>
<path d="M167.056 145.082V148.707L170.681 146.614L181.555 140.336L185.18 138.243V117.703L181.555 119.796L170.681 126.074L167.056 128.167V131.792M181.554 136.712L170.68 142.99V138.158L181.554 131.879V136.712ZM181.554 128.254L170.68 134.533V129.7L181.554 123.422V128.254Z" fill="white"/>
</g>
</g>
<path fill-rule="evenodd" clip-rule="evenodd" d="M165.565 -6.27997e-08C166.358 -2.81164e-08 167.002 0.643228 167.002 1.43669L167.002 88.5958C167.002 89.3893 166.358 90.0325 165.565 90.0325C164.771 90.0325 164.128 89.3893 164.128 88.5958L164.128 1.43669C164.128 0.643227 164.771 -9.7483e-08 165.565 -6.27997e-08Z" fill="#006F30"/>
<path d="M156.945 88.5958H174.185V92.427C174.185 93.4849 173.327 94.3426 172.27 94.3426H158.86C157.802 94.3426 156.945 93.4849 156.945 92.427V88.5958Z" fill="white"/>
<path fill-rule="evenodd" clip-rule="evenodd" d="M173.227 89.5536H157.903V92.427C157.903 92.956 158.331 93.3848 158.86 93.3848H172.27C172.798 93.3848 173.227 92.956 173.227 92.427V89.5536ZM156.945 88.5958V92.427C156.945 93.4849 157.802 94.3426 158.86 94.3426H172.27C173.327 94.3426 174.185 93.4849 174.185 92.427V88.5958H156.945Z" fill="#006F30"/>
<defs>
<filter id="filter0_d_128_2447" x="0.470588" y="124.985" width="126.824" height="126.824" filterUnits="userSpaceOnUse" color-interpolation-filters="sRGB">
<feFlood flood-opacity="0" result="BackgroundImageFix"/>
<feColorMatrix in="SourceAlpha" type="matrix" values="0 0 0 0 0 0 0 0 0 0 0 0 0 0 0 0 0 0 127 0" result="hardAlpha"/>
<feOffset dx="2.88235" dy="2.88235"/>
<feGaussianBlur stdDeviation="7.20588"/>
<feComposite in2="hardAlpha" operator="out"/>
<feColorMatrix type="matrix" values="0 0 0 0 0 0 0 0 0 0 0 0 0 0 0 0 0 0 0.25 0"/>
<feBlend mode="normal" in2="BackgroundImageFix" result="effect1_dropShadow_128_2447"/>
<feBlend mode="normal" in="SourceGraphic" in2="effect1_dropShadow_128_2447" result="shape"/>
</filter>
<filter id="filter1_d_128_2447" x="125.338" y="85.7224" width="84.2857" height="84.2857" filterUnits="userSpaceOnUse" color-interpolation-filters="sRGB">
<feFlood flood-opacity="0" result="BackgroundImageFix"/>
<feColorMatrix in="SourceAlpha" type="matrix" values="0 0 0 0 0 0 0 0 0 0 0 0 0 0 0 0 0 0 127 0" result="hardAlpha"/>
<feOffset dx="1.91559" dy="1.91559"/>
<feGaussianBlur stdDeviation="4.78896"/>
<feComposite in2="hardAlpha" operator="out"/>
<feColorMatrix type="matrix" values="0 0 0 0 0 0 0 0 0 0 0 0 0 0 0 0 0 0 0.25 0"/>
<feBlend mode="normal" in2="BackgroundImageFix" result="effect1_dropShadow_128_2447"/>
<feBlend mode="normal" in="SourceGraphic" in2="effect1_dropShadow_128_2447" result="shape"/>
</filter>
<clipPath id="clip0_128_2447">
<rect width="61.3675" height="71.2015" fill="white" transform="translate(30.3163 149.914)"/>
</clipPath>
<clipPath id="clip1_128_2447">
<rect width="39.229" height="45.5153" fill="white" transform="translate(145.95 103.192)"/>
</clipPath>
</defs>
</svg>
