<svg width="296" height="91" viewBox="0 0 296 91" fill="none" xmlns="http://www.w3.org/2000/svg">
<path d="M23.3888 17.9256L31.1823 13.4446L38.9743 8.96358L46.7663 4.48259L38.9599 0L31.1679 4.48099L23.3759 8.96198L15.584 13.443L7.79198 17.924L0 22.4033L7.80482 26.8875L15.6112 31.3701L23.416 35.8543L31.2225 40.3369L39.0273 44.8211L46.8193 40.3401L54.6112 35.8591L62.4032 31.3781L70.1952 26.8972L77.9872 22.4162L70.1824 17.9336L62.3904 22.4146L54.5984 26.894L46.8064 31.3749L39.0144 35.8559L31.208 31.3733L39 26.8923L46.792 22.4114L54.584 17.9304L62.3759 13.4494L54.5711 8.96679L46.7791 13.4478L38.9872 17.9288L31.1952 22.4098L23.4032 26.8891L15.5968 22.4065L23.3888 17.9256Z" fill="#D83733"/>
<path d="M36.1497 90.4559V83.2337V71.3571V64.1349V56.9127V49.6905L28.9275 45.5208V52.743V59.9653V67.1875V79.064L21.7052 74.8944V63.0179V55.7956V48.5734V41.3512L14.483 37.18V44.4022V51.6244V58.8466V70.7232L7.2608 66.5535V54.677V47.4548V40.2326V33.0103L0.0385742 28.8407V36.0629V43.2851V50.5074V57.7296V69.6061" fill="#D83733"/>
<path d="M41.9644 83.2914V90.4992L49.1721 86.3376L70.7939 73.8544L78.0016 69.6928V28.8519L70.7939 33.0135L49.1721 45.4967L41.9644 49.6583V56.8661M70.7923 66.6482L49.1705 79.1314V69.5227L70.7923 57.0395V66.6482ZM70.7923 49.8317L49.1705 62.3149V52.7061L70.7923 40.2229V49.8317Z" fill="#D83733"/>
<path d="M97.0025 58.2049C95.3783 58.2049 93.9071 58.0166 92.5889 57.64C91.2943 57.2398 90.1409 56.6749 89.1287 55.9451C88.1165 55.1919 87.2102 54.3092 86.4099 53.297L90.0467 49.1659C91.2237 50.743 92.4006 51.8023 93.5776 52.3437C94.7781 52.8851 96.0139 53.1558 97.285 53.1558C97.9205 53.1558 98.4972 53.0734 99.0151 52.9086C99.533 52.7438 99.9331 52.5084 100.216 52.2024C100.498 51.8729 100.639 51.4727 100.639 51.0019C100.639 50.6488 100.545 50.3311 100.357 50.0486C100.192 49.7661 99.9567 49.519 99.6506 49.3071C99.3446 49.0953 98.9798 48.9069 98.5561 48.7422C98.1324 48.5539 97.6851 48.4009 97.2144 48.2832C96.7436 48.1419 96.261 48.0242 95.7667 47.9301C94.4014 47.6241 93.2127 47.2474 92.2005 46.8002C91.1883 46.353 90.3409 45.8116 89.6583 45.176C88.9992 44.5169 88.5049 43.7754 88.1753 42.9516C87.8458 42.1042 87.681 41.1626 87.681 40.1269C87.681 39.0205 87.9282 38.0083 88.4225 37.0903C88.9404 36.1488 89.623 35.3484 90.4704 34.6893C91.3413 34.0067 92.3418 33.4888 93.4716 33.1358C94.6015 32.7591 95.7785 32.5708 97.0025 32.5708C98.6267 32.5708 100.016 32.7474 101.169 33.1004C102.346 33.43 103.346 33.9125 104.17 34.5481C105.018 35.1837 105.736 35.9487 106.324 36.8432L102.617 40.4093C102.122 39.7973 101.581 39.2912 100.992 38.8911C100.427 38.4909 99.8154 38.1849 99.1563 37.973C98.5208 37.7612 97.8617 37.6553 97.179 37.6553C96.4729 37.6553 95.8609 37.7494 95.343 37.9377C94.8487 38.1025 94.4603 38.3497 94.1778 38.6792C93.8953 38.9852 93.7541 39.3618 93.7541 39.8091C93.7541 40.2093 93.8718 40.5506 94.1072 40.833C94.3426 41.1155 94.6604 41.3744 95.0605 41.6098C95.4607 41.8217 95.9197 42.01 96.4376 42.1748C96.9554 42.316 97.4968 42.4337 98.0618 42.5279C99.3564 42.7868 100.522 43.1281 101.557 43.5518C102.617 43.9755 103.523 44.4934 104.276 45.1054C105.053 45.7174 105.641 46.4471 106.042 47.2945C106.465 48.1184 106.677 49.0835 106.677 50.1898C106.677 51.9082 106.253 53.3676 105.406 54.5681C104.582 55.7451 103.44 56.6513 101.981 57.2869C100.545 57.8989 98.8856 58.2049 97.0025 58.2049ZM95.6608 68.2325L94.2484 66.2906C94.578 66.1729 94.9311 66.0081 95.3077 65.7963C95.7079 65.6079 96.0492 65.3725 96.3316 65.0901C96.6376 64.8076 96.7906 64.5251 96.7906 64.2427C96.7906 64.0544 96.72 63.9014 96.5788 63.7837C96.4611 63.6895 96.2493 63.5718 95.9432 63.4306C95.4489 63.2423 95.0958 62.9951 94.884 62.6891C94.6721 62.4066 94.5662 62.03 94.5662 61.5592C94.5662 60.806 94.8369 60.2293 95.3783 59.8291C95.9197 59.4525 96.6023 59.2642 97.4262 59.2642C98.4148 59.2642 99.2505 59.5466 99.9331 60.1116C100.616 60.7 100.957 61.5592 100.957 62.6891C100.957 63.3717 100.828 63.9955 100.569 64.5604C100.333 65.1489 99.9802 65.6668 99.5094 66.114C99.0622 66.5848 98.509 66.985 97.8499 67.3145C97.1908 67.6676 96.4611 67.9736 95.6608 68.2325ZM118.816 58.2049C117.003 58.2049 115.379 57.7812 113.943 56.9338C112.507 56.0864 111.366 54.933 110.518 53.4735C109.694 51.9906 109.282 50.3193 109.282 48.4597C109.282 46.6001 109.694 44.9406 110.518 43.4812C111.366 41.9982 112.507 40.833 113.943 39.9856C115.379 39.1382 117.003 38.7145 118.816 38.7145C120.487 38.7145 122.017 39.0088 123.406 39.5972C124.818 40.1857 125.936 41.0096 126.76 42.0688L123.688 45.7409C123.359 45.3643 122.97 45.0112 122.523 44.6817C122.076 44.3521 121.582 44.0932 121.04 43.9049C120.499 43.7166 119.934 43.6224 119.345 43.6224C118.451 43.6224 117.662 43.8343 116.98 44.258C116.297 44.6581 115.767 45.2231 115.391 45.9528C115.014 46.6825 114.826 47.5181 114.826 48.4597C114.826 49.3542 115.014 50.1663 115.391 50.896C115.791 51.6257 116.332 52.2024 117.015 52.6261C117.698 53.0498 118.474 53.2617 119.345 53.2617C119.957 53.2617 120.522 53.1911 121.04 53.0498C121.558 52.8851 122.029 52.6497 122.453 52.3437C122.9 52.0376 123.312 51.661 123.688 51.2138L126.725 54.9212C125.925 55.9334 124.806 56.7337 123.371 57.3222C121.958 57.9107 120.44 58.2049 118.816 58.2049ZM138.656 58.2049C136.703 58.2049 134.961 57.7812 133.431 56.9338C131.924 56.0864 130.724 54.933 129.829 53.4735C128.958 52.0141 128.523 50.3428 128.523 48.4597C128.523 46.5766 128.958 44.9053 129.829 43.4459C130.724 41.9865 131.924 40.833 133.431 39.9856C134.961 39.1382 136.703 38.7145 138.656 38.7145C140.61 38.7145 142.34 39.1382 143.847 39.9856C145.377 40.833 146.577 41.9865 147.448 43.4459C148.319 44.9053 148.755 46.5766 148.755 48.4597C148.755 50.3428 148.319 52.0141 147.448 53.4735C146.577 54.933 145.377 56.0864 143.847 56.9338C142.34 57.7812 140.61 58.2049 138.656 58.2049ZM138.656 53.3323C139.504 53.3323 140.257 53.1204 140.916 52.6967C141.575 52.273 142.093 51.6963 142.47 50.9666C142.846 50.2369 143.023 49.4013 142.999 48.4597C143.023 47.5181 142.846 46.6825 142.47 45.9528C142.093 45.1995 141.575 44.6111 140.916 44.1874C140.257 43.7637 139.504 43.5518 138.656 43.5518C137.809 43.5518 137.044 43.7637 136.361 44.1874C135.702 44.6111 135.184 45.1995 134.808 45.9528C134.431 46.6825 134.255 47.5181 134.278 48.4597C134.255 49.4013 134.431 50.2369 134.808 50.9666C135.184 51.6963 135.702 52.273 136.361 52.6967C137.044 53.1204 137.809 53.3323 138.656 53.3323ZM159.369 58.1696C157.792 58.1696 156.38 57.7577 155.132 56.9338C153.908 56.0864 152.931 54.933 152.202 53.4735C151.472 51.9906 151.107 50.3193 151.107 48.4597C151.107 46.553 151.472 44.87 152.202 43.4106C152.931 41.9511 153.932 40.8095 155.203 39.9856C156.474 39.1382 157.922 38.7145 159.546 38.7145C160.44 38.7145 161.253 38.844 161.982 39.1029C162.736 39.3618 163.395 39.7267 163.96 40.1975C164.524 40.6447 165.007 41.1744 165.407 41.7864C165.807 42.3749 166.102 43.0104 166.29 43.693L165.125 43.5518V39.1029H170.739V57.8518H165.019V53.3323L166.29 53.297C166.102 53.9561 165.796 54.5799 165.372 55.1683C164.948 55.7568 164.43 56.2747 163.818 56.7219C163.206 57.1692 162.524 57.5223 161.77 57.7812C161.017 58.0401 160.217 58.1696 159.369 58.1696ZM160.923 53.4029C161.794 53.4029 162.547 53.2028 163.183 52.8027C163.818 52.4025 164.313 51.8376 164.666 51.1079C165.019 50.3546 165.195 49.4719 165.195 48.4597C165.195 47.4475 165.019 46.5766 164.666 45.8469C164.313 45.0936 163.818 44.5169 163.183 44.1167C162.547 43.693 161.794 43.4812 160.923 43.4812C160.076 43.4812 159.334 43.693 158.699 44.1167C158.087 44.5169 157.604 45.0936 157.251 45.8469C156.898 46.5766 156.721 47.4475 156.721 48.4597C156.721 49.4719 156.898 50.3546 157.251 51.1079C157.604 51.8376 158.087 52.4025 158.699 52.8027C159.334 53.2028 160.076 53.4029 160.923 53.4029ZM175.759 57.8518V31.7234H181.408V57.8518H175.759ZM193.023 58.1696C191.446 58.1696 190.034 57.7577 188.786 56.9338C187.562 56.0864 186.585 54.933 185.855 53.4735C185.126 51.9906 184.761 50.3193 184.761 48.4597C184.761 46.553 185.126 44.87 185.855 43.4106C186.585 41.9511 187.585 40.8095 188.857 39.9856C190.128 39.1382 191.575 38.7145 193.2 38.7145C194.094 38.7145 194.906 38.844 195.636 39.1029C196.389 39.3618 197.048 39.7267 197.613 40.1975C198.178 40.6447 198.661 41.1744 199.061 41.7864C199.461 42.3749 199.755 43.0104 199.943 43.693L198.778 43.5518V39.1029H204.392V57.8518H198.672V53.3323L199.943 53.297C199.755 53.9561 199.449 54.5799 199.025 55.1683C198.602 55.7568 198.084 56.2747 197.472 56.7219C196.86 57.1692 196.177 57.5223 195.424 57.7812C194.671 58.0401 193.87 58.1696 193.023 58.1696ZM194.577 53.4029C195.448 53.4029 196.201 53.2028 196.836 52.8027C197.472 52.4025 197.966 51.8376 198.319 51.1079C198.672 50.3546 198.849 49.4719 198.849 48.4597C198.849 47.4475 198.672 46.5766 198.319 45.8469C197.966 45.0936 197.472 44.5169 196.836 44.1167C196.201 43.693 195.448 43.4812 194.577 43.4812C193.729 43.4812 192.988 43.693 192.352 44.1167C191.74 44.5169 191.258 45.0936 190.904 45.8469C190.551 46.5766 190.375 47.4475 190.375 48.4597C190.375 49.4719 190.551 50.3546 190.904 51.1079C191.258 51.8376 191.74 52.4025 192.352 52.8027C192.988 53.2028 193.729 53.4029 194.577 53.4029ZM225.736 57.8518L218.321 33.1358H224.43L228.137 46.1293C228.302 46.7178 228.443 47.3181 228.561 47.9301C228.702 48.5186 228.808 49.0835 228.879 49.6249C228.973 50.1663 229.043 50.6724 229.09 51.1432C229.138 51.5904 229.185 51.967 229.232 52.273H228.455C228.596 51.4021 228.714 50.6253 228.808 49.9427C228.926 49.26 229.055 48.6245 229.196 48.036C229.338 47.424 229.514 46.7884 229.726 46.1293L233.398 36.3488H238.2L241.802 46.1293C242.084 46.9061 242.319 47.6358 242.508 48.3185C242.696 49.0011 242.837 49.6602 242.931 50.2958C243.049 50.9078 243.143 51.5198 243.214 52.1318L242.508 52.2377C242.555 51.814 242.59 51.4256 242.614 51.0725C242.637 50.6959 242.661 50.3428 242.684 50.0133C242.731 49.6602 242.778 49.2953 242.826 48.9187C242.873 48.5421 242.943 48.1302 243.037 47.6829C243.132 47.2121 243.261 46.6825 243.426 46.094L247.098 33.1358H253.065L245.65 57.8518H241.06L235.199 43.6224L235.87 43.693L230.468 57.8518H225.736ZM263.791 58.2049C261.719 58.2049 259.919 57.793 258.389 56.9691C256.859 56.1217 255.67 54.98 254.822 53.5442C253.975 52.0847 253.551 50.4252 253.551 48.5656C253.551 47.1297 253.787 45.8116 254.258 44.6111C254.728 43.4106 255.387 42.3749 256.235 41.5039C257.082 40.6094 258.083 39.9268 259.236 39.456C260.413 38.9617 261.696 38.7145 263.085 38.7145C264.403 38.7145 265.603 38.9499 266.686 39.4207C267.793 39.8915 268.746 40.5506 269.546 41.398C270.347 42.2454 270.959 43.2458 271.382 44.3992C271.806 45.5526 271.994 46.812 271.947 48.1772L271.912 49.6955H256.976L256.164 46.5177H267.322L266.721 47.1886V46.4824C266.674 45.8939 266.486 45.3761 266.157 44.9288C265.851 44.4581 265.439 44.0932 264.921 43.8343C264.403 43.5753 263.814 43.4459 263.155 43.4459C262.237 43.4459 261.449 43.6342 260.79 44.0108C260.154 44.3639 259.672 44.8935 259.342 45.5997C259.012 46.2823 258.848 47.1297 258.848 48.1419C258.848 49.1776 259.06 50.0839 259.483 50.8607C259.93 51.6139 260.566 52.2024 261.39 52.6261C262.237 53.0498 263.238 53.2617 264.391 53.2617C265.191 53.2617 265.898 53.144 266.51 52.9086C267.145 52.6732 267.828 52.273 268.558 51.7081L271.206 55.4508C270.476 56.0864 269.699 56.6042 268.875 57.0044C268.051 57.4046 267.204 57.6988 266.333 57.8871C265.486 58.099 264.638 58.2049 263.791 58.2049ZM286.81 58.2402C285.962 58.2402 285.15 58.1225 284.374 57.8871C283.597 57.6517 282.891 57.3339 282.255 56.9338C281.643 56.5336 281.125 56.0746 280.702 55.5567C280.301 55.0153 280.031 54.4622 279.889 53.8972L281.125 53.4735L280.807 57.8165H275.546V31.7234H281.231V43.5871L280.066 43.1634C280.207 42.5514 280.478 41.9865 280.878 41.4686C281.278 40.9272 281.784 40.4564 282.396 40.0563C283.008 39.6325 283.679 39.303 284.409 39.0676C285.139 38.8322 285.892 38.7145 286.669 38.7145C288.293 38.7145 289.729 39.1382 290.976 39.9856C292.247 40.8095 293.248 41.9629 293.978 43.4459C294.707 44.9053 295.072 46.5766 295.072 48.4597C295.072 50.3664 294.707 52.0612 293.978 53.5442C293.271 55.0036 292.295 56.157 291.047 57.0044C289.799 57.8283 288.387 58.2402 286.81 58.2402ZM285.327 53.4735C286.174 53.4735 286.916 53.2617 287.551 52.838C288.187 52.4143 288.669 51.8376 288.999 51.1079C289.352 50.3546 289.529 49.4719 289.529 48.4597C289.529 47.4711 289.352 46.6001 288.999 45.8469C288.669 45.0936 288.187 44.5169 287.551 44.1167C286.916 43.7166 286.174 43.5165 285.327 43.5165C284.456 43.5165 283.703 43.7166 283.067 44.1167C282.432 44.5169 281.937 45.0936 281.584 45.8469C281.231 46.6001 281.055 47.4711 281.055 48.4597C281.055 49.4719 281.231 50.3546 281.584 51.1079C281.937 51.8376 282.432 52.4143 283.067 52.838C283.703 53.2617 284.456 53.4735 285.327 53.4735Z" fill="#D83733"/>
</svg>
