<svg width="104" height="104" viewBox="0 0 104 104" fill="none" xmlns="http://www.w3.org/2000/svg">
<path d="M82.1049 95.8165C81.4374 93.9308 79.636 92.5765 77.5235 92.5765C75.411 92.5765 73.6096 93.9308 72.9421 95.8165H69.1449C68.4774 93.9308 66.676 92.5765 64.5635 92.5765C62.451 92.5765 60.6496 93.9308 59.9821 95.8165H56.1849C55.5174 93.9308 53.716 92.5765 51.6035 92.5765C49.491 92.5765 47.6896 93.9308 47.0221 95.8165H43.2249C42.5574 93.9308 40.756 92.5765 38.6435 92.5765C36.531 92.5765 34.7296 93.9308 34.0621 95.8165H30.2649C29.5974 93.9308 27.796 92.5765 25.6835 92.5765C23.571 92.5765 21.7696 93.9308 21.1021 95.8165H17.5835V89.0611C19.4692 88.3904 20.8235 86.589 20.8235 84.4765C20.8235 82.364 19.4692 80.5626 17.5835 79.8919V76.0978C19.4692 75.4272 20.8235 73.6257 20.8235 71.5132C20.8235 69.4008 19.4692 67.5993 17.5835 66.9286V63.1346C19.4692 62.4639 20.8235 60.6625 20.8235 58.55C20.8235 56.4375 19.4692 54.6361 17.5835 53.9654L17.5835 50.1714C19.4692 49.5007 20.8235 47.6992 20.8235 45.5868C20.8235 43.4743 19.4692 41.6728 17.5835 41.0022V37.2081C19.4692 36.5374 20.8235 34.736 20.8235 32.6235C20.8235 30.511 19.4692 28.7096 17.5835 28.0389V24.2578C19.4692 23.5872 20.8235 21.7857 20.8235 19.6732C20.8235 17.5608 19.4692 15.7593 17.5835 15.0886V8.33649H21.1021C21.7696 10.2222 23.571 11.5765 25.6835 11.5765C27.796 11.5765 29.5974 10.2222 30.2649 8.33649H34.0621C34.7296 10.2222 36.531 11.5765 38.6435 11.5765C40.756 11.5765 42.5574 10.2222 43.2249 8.33649H47.0221C47.6896 10.2222 49.491 11.5765 51.6035 11.5765C53.716 11.5765 55.5174 10.2222 56.1849 8.33649H59.9821C60.6496 10.2222 62.451 11.5765 64.5635 11.5765C66.676 11.5765 68.4774 10.2222 69.1449 8.33649L72.9421 8.33649C73.6096 10.2222 75.411 11.5765 77.5235 11.5765C79.636 11.5765 81.4374 10.2222 82.1049 8.33649L85.6235 8.33649V15.0919C83.7378 15.7626 82.3835 17.564 82.3835 19.6765C82.3835 21.789 83.7378 23.5904 85.6235 24.2611V28.0551C83.7378 28.7258 82.3835 30.5272 82.3835 32.6397C82.3835 34.7522 83.7378 36.5536 85.6235 37.2243V41.0184C83.7378 41.689 82.3835 43.4905 82.3835 45.603C82.3835 47.7154 83.7378 49.5169 85.6235 50.1876V53.9816C83.7378 54.6523 82.3835 56.4537 82.3835 58.5662C82.3835 60.6787 83.7378 62.4801 85.6235 63.1508V66.9449C83.7378 67.6155 82.3835 69.417 82.3835 71.5294C82.3835 73.6419 83.7378 75.4434 85.6235 76.1141V79.9081C83.7378 80.5788 82.3835 82.3802 82.3835 84.4927C82.3835 86.6052 83.7378 88.4066 85.6235 89.0773V95.8327H82.1049V95.8165Z" fill="#FFFAEE"/>
<path d="M76.14 17.82L27.54 17.82L27.54 85.86H76.14V17.82Z" fill="#FFD4DA"/>
<path d="M25.92 87.48H77.7599V16.2L25.92 16.2L25.92 87.48ZM29.16 19.44L74.5199 19.44V84.24H29.16L29.16 19.44ZM87.4799 16.2V6.47998L80.9999 6.47998C80.9999 8.26846 79.5484 9.71998 77.7599 9.71998C75.9715 9.71998 74.5199 8.26846 74.5199 6.47998L68.0399 6.47998C68.0399 8.26846 66.5884 9.71998 64.7999 9.71998C63.0115 9.71998 61.5599 8.26846 61.5599 6.47998L55.0799 6.47998C55.0799 8.26846 53.6284 9.71998 51.84 9.71998C50.0515 9.71998 48.5999 8.26846 48.5999 6.47998L42.1199 6.47998C42.1199 8.26846 40.6684 9.71998 38.8799 9.71998C37.0915 9.71998 35.6399 8.26846 35.6399 6.47998L29.16 6.47998C29.16 8.26846 27.7084 9.71998 25.92 9.71998C24.1315 9.71998 22.68 8.26846 22.68 6.47998L16.2 6.47998V16.2C17.9884 16.2 19.44 17.6515 19.44 19.44C19.44 21.2285 17.9884 22.68 16.2 22.68V29.16C17.9884 29.16 19.44 30.6115 19.44 32.4C19.44 34.1885 17.9884 35.64 16.2 35.64V42.12C17.9884 42.12 19.44 43.5715 19.44 45.36C19.44 47.1485 17.9884 48.6 16.2 48.6V55.08C17.9884 55.08 19.44 56.5315 19.44 58.32C19.44 60.1085 17.9884 61.56 16.2 61.56V68.04C17.9884 68.04 19.44 69.4915 19.44 71.28C19.44 73.0685 17.9884 74.52 16.2 74.52L16.2 81C17.9884 81 19.44 82.4515 19.44 84.24C19.44 86.0285 17.9884 87.48 16.2 87.48V97.2H22.68C22.68 95.4115 24.1315 93.96 25.92 93.96C27.7084 93.96 29.16 95.4115 29.16 97.2H35.6399C35.6399 95.4115 37.0915 93.96 38.8799 93.96C40.6684 93.96 42.1199 95.4115 42.1199 97.2H48.5999C48.5999 95.4115 50.0515 93.96 51.84 93.96C53.6284 93.96 55.0799 95.4115 55.0799 97.2H61.5599C61.5599 95.4115 63.0115 93.96 64.7999 93.96C66.5884 93.96 68.0399 95.4115 68.0399 97.2H74.5199C74.5199 95.4115 75.9715 93.96 77.7599 93.96C79.5484 93.96 80.9999 95.4115 80.9999 97.2H87.4799V87.48C85.6915 87.48 84.2399 86.0285 84.2399 84.24C84.2399 82.4515 85.6915 81 87.4799 81V74.52C85.6915 74.52 84.2399 73.0685 84.2399 71.28C84.2399 69.4915 85.6915 68.04 87.4799 68.04V61.56C85.6915 61.56 84.2399 60.1085 84.2399 58.32C84.2399 56.5315 85.6915 55.08 87.4799 55.08V48.6C85.6915 48.6 84.2399 47.1485 84.2399 45.36C84.2399 43.5715 85.6915 42.12 87.4799 42.12V35.64C85.6915 35.64 84.2399 34.1885 84.2399 32.4C84.2399 30.6115 85.6915 29.16 87.4799 29.16V22.68C85.6915 22.68 84.2399 21.2285 84.2399 19.44C84.2399 17.6515 85.6915 16.2 87.4799 16.2ZM84.2399 13.8283C82.3057 14.9526 80.9999 17.0456 80.9999 19.44C80.9999 21.8343 82.3057 23.9274 84.2399 25.0517V26.7915C82.3057 27.9126 80.9999 30.0056 80.9999 32.4C80.9999 34.7943 82.3057 36.8874 84.2399 38.0117V39.7515C82.3057 40.8726 80.9999 42.9689 80.9999 45.3632C80.9999 47.7576 82.3057 49.8506 84.2399 50.9749V52.7148C82.3057 53.8358 80.9999 55.9321 80.9999 58.3265C80.9999 60.7208 82.3057 62.8139 84.2399 63.9381V65.678C82.3057 66.7991 80.9999 68.8953 80.9999 71.2897C80.9999 73.6841 82.3057 75.7771 84.2399 76.9014V78.6413C82.3057 79.7623 80.9999 81.8586 80.9999 84.2529C80.9999 86.6473 82.3057 88.7403 84.2399 89.8646V93.96H83.3716C82.2506 92.0257 80.1543 90.72 77.7599 90.72C75.3656 90.72 73.2725 92.0257 72.1483 93.96H70.4084C69.2873 92.0257 67.1911 90.72 64.7967 90.72C62.4024 90.72 60.3093 92.0257 59.185 93.96H57.4451C56.3241 92.0257 54.2278 90.72 51.8335 90.72C49.4391 90.72 47.3461 92.0257 46.2218 93.96H44.4819C43.3609 92.0257 41.2646 90.72 38.8702 90.72C36.4759 90.72 34.3828 92.0257 33.2586 93.96H31.5316C30.4074 92.0257 28.3143 90.72 25.92 90.72C23.5256 90.72 21.4326 92.0257 20.3083 93.96H19.44V89.8517C21.3742 88.7274 22.68 86.6343 22.68 84.24C22.68 81.8456 21.3742 79.7526 19.44 78.6283V76.8884C21.3742 75.7674 22.68 73.6743 22.68 71.28C22.68 68.8856 21.3742 66.7926 19.44 65.6683V63.9284C21.3742 62.8074 22.68 60.7143 22.68 58.32C22.68 55.9256 21.3742 53.8326 19.44 52.7083V50.9684C21.3742 49.8474 22.68 47.7543 22.68 45.36C22.68 42.9656 21.3742 40.8726 19.44 39.7483V38.0084C21.3742 36.8874 22.68 34.7943 22.68 32.4C22.68 30.0056 21.3742 27.9126 19.44 26.7883V25.0517C21.3742 23.9274 22.68 21.8343 22.68 19.44C22.68 17.0456 21.3742 14.9526 19.44 13.8283V9.71998H20.3083C21.4326 11.6543 23.5256 12.96 25.92 12.96C28.3143 12.96 30.4074 11.6543 31.5316 9.71998H33.2715C34.3926 11.6543 36.4856 12.96 38.8799 12.96C41.2743 12.96 43.3674 11.6543 44.4916 9.71998H46.2315C47.3526 11.6543 49.4456 12.96 51.84 12.96C54.2343 12.96 56.3274 11.6543 57.4516 9.71998H59.1915C60.3125 11.6543 62.4056 12.96 64.7999 12.96C67.1943 12.96 69.2873 11.6543 70.4116 9.71998H72.1515C73.2725 11.6543 75.3656 12.96 77.7599 12.96C80.1543 12.96 82.2474 11.6543 83.3716 9.71998H84.2399V13.8283Z" fill="#006F30"/>
</svg>
